<?xml version="1.0" encoding="utf-8"?>
<!-- Generator: Adobe Illustrator 27.5.0, SVG Export Plug-In . SVG Version: 6.00 Build 0)  -->
<svg version="1.1" id="Layer_1" xmlns="http://www.w3.org/2000/svg" xmlns:xlink="http://www.w3.org/1999/xlink" x="0px" y="0px"
	 viewBox="0 0 800 800" style="enable-background:new 0 0 800 800;" xml:space="preserve">
<g>
	<g>
		<rect style="fill:#FFFFFF;" width="800" height="800"/>
	</g>
	<g>
		<path style="fill:#F1F2F2;" d="M293.661,258.468c0,11.249-9.205,20.46-20.46,20.46H82.043c-11.255,0-20.463-9.211-20.463-20.46
			V105.723c0-11.252,9.208-20.463,20.463-20.463h191.158c11.255,0,20.46,9.211,20.46,20.463V258.468z"/>
		<path d="M273.201,280.474H82.043c-12.136,0-22.009-9.872-22.009-22.005V105.723c0-12.135,9.873-22.009,22.009-22.009h191.158
			c12.134,0,22.005,9.874,22.005,22.009v152.745C295.206,270.602,285.335,280.474,273.201,280.474z M82.043,86.806
			c-10.431,0-18.918,8.486-18.918,18.917v152.745c0,10.429,8.486,18.914,18.918,18.914h191.158c10.429,0,18.915-8.485,18.915-18.914
			V105.723c0-10.431-8.485-18.917-18.915-18.917H82.043z"/>
	</g>
	<g>
		<g>
			<path style="fill:#FFFFFF;" d="M182.068,140.384v-25.039c0-0.48,0.329-0.885,0.803-0.979c0.04-0.009,3.076-0.61,7.016-0.61
				c10.268,0,15.922,4.127,15.922,11.614v40.437h33.876c7.33,0,13.296,5.969,13.296,13.294v46.858
				c0,7.327-5.966,13.287-13.296,13.287h-86.123v-73.438C153.563,165.808,179.484,162.016,182.068,140.384z"/>
			<path d="M239.686,240.792h-86.123c-0.855,0-1.546-0.691-1.546-1.545v-73.438c0-0.766,0.563-1.417,1.321-1.529
				c0.248-0.036,24.785-3.896,27.195-24.077l-0.01-24.857c0-1.211,0.862-2.26,2.05-2.496l0,0c-0.002,0,3.188-0.638,7.315-0.638
				c11.101,0,17.468,4.797,17.468,13.16v38.891h32.331c8.183,0,14.842,6.657,14.842,14.839v46.858
				C254.528,234.137,247.87,240.792,239.686,240.792z M155.109,237.7h84.578c6.479,0,11.75-5.267,11.75-11.741v-46.858
				c0-6.478-5.271-11.748-11.75-11.748H205.81c-0.854,0-1.546-0.691-1.546-1.546v-40.437c0-8.322-7.818-10.068-14.376-10.068
				c-2.909,0-5.327,0.345-6.273,0.503v24.579c-2.356,19.798-23.032,25.526-28.505,26.701V237.7z"/>
		</g>
		<g>
			<path style="fill:#E6E7E8;" d="M133.387,161.216h14.697c3.028,0,5.48,2.44,5.48,5.462v72.867c0,3.019-2.452,5.477-5.48,5.477
				h-14.697V161.216z"/>
			<path d="M148.083,246.567h-14.697c-0.855,0-1.546-0.691-1.546-1.545v-83.806c0-0.854,0.691-1.545,1.546-1.545h14.697
				c3.874,0,7.025,3.143,7.025,7.007v72.867C155.109,243.417,151.957,246.567,148.083,246.567z M134.932,243.476h13.151
				c2.169,0,3.934-1.763,3.934-3.931v-72.867c0-2.159-1.765-3.916-3.934-3.916h-13.151V243.476z"/>
		</g>
		<g>
			<rect x="61.579" y="155.06" style="fill:#41D3FF;" width="71.808" height="96.102"/>
			<path d="M133.387,252.708H61.579c-0.854,0-1.545-0.692-1.545-1.546V155.06c0-0.854,0.691-1.546,1.545-1.546h71.808
				c0.854,0,1.545,0.691,1.545,1.546v96.102C134.932,252.016,134.241,252.708,133.387,252.708z M63.125,249.616h68.716v-93.01
				H63.125V249.616z"/>
		</g>
	</g>
	<g>
		<g>
			<path style="fill:#F38184;" d="M504.384,416.916c0-62.908-50.999-113.911-113.915-113.911
				c-62.917,0-113.92,51.003-113.92,113.911c0,62.916,51.003,113.922,113.92,113.922
				C453.385,530.838,504.384,479.832,504.384,416.916z"/>
			<path d="M390.469,532.385c-63.668,0-115.466-51.8-115.466-115.469c0-63.664,51.798-115.457,115.466-115.457
				c63.666,0,115.46,51.793,115.46,115.457C505.929,480.585,454.135,532.385,390.469,532.385z M390.469,304.551
				c-61.964,0-112.374,50.407-112.374,112.365c0,61.965,50.41,112.377,112.374,112.377c61.959,0,112.368-50.412,112.368-112.377
				C502.837,354.957,452.428,304.551,390.469,304.551z"/>
		</g>
		<g>
			<path style="fill:#FFFFFF;" d="M471.728,416.916c0-44.878-36.382-81.264-81.26-81.264c-44.887,0-81.272,36.386-81.272,81.264
				c0,44.887,36.385,81.275,81.272,81.275C435.347,498.191,471.728,461.803,471.728,416.916z"/>
			<path d="M390.469,499.736c-45.666,0-82.818-37.153-82.818-82.82c0-45.662,37.152-82.81,82.818-82.81
				c45.66,0,82.807,37.148,82.807,82.81C473.275,462.583,436.129,499.736,390.469,499.736z M390.469,337.198
				c-43.961,0-79.727,35.76-79.727,79.718c0,43.963,35.765,79.729,79.727,79.729c43.954,0,79.715-35.766,79.715-79.729
				C470.184,372.958,434.423,337.198,390.469,337.198z"/>
		</g>
		<g>
			<path style="fill:#F38184;" d="M440.416,416.921c0-27.59-22.359-49.955-49.947-49.955c-27.594,0-49.959,22.365-49.959,49.955
				c0,27.595,22.365,49.953,49.959,49.953C418.057,466.874,440.416,444.516,440.416,416.921z"/>
			<path d="M390.469,468.42c-28.399,0-51.504-23.101-51.504-51.499c0-28.398,23.105-51.5,51.504-51.5
				c28.393,0,51.492,23.102,51.492,51.5C441.961,445.319,418.861,468.42,390.469,468.42z M390.469,368.512
				c-26.695,0-48.413,21.717-48.413,48.409c0,26.692,21.718,48.408,48.413,48.408c26.688,0,48.401-21.716,48.401-48.408
				C438.87,390.229,417.157,368.512,390.469,368.512z"/>
		</g>
		<g>
			<path style="fill:#FFFFFF;" d="M412.272,416.916c0-12.04-9.775-21.801-21.804-21.801c-12.049,0-21.797,9.761-21.797,21.801
				c0,12.045,9.748,21.813,21.797,21.813C402.497,438.728,412.272,428.961,412.272,416.916z"/>
			<path d="M390.469,440.273c-12.871,0-23.343-10.479-23.343-23.357c0-12.874,10.472-23.347,23.343-23.347
				c12.875,0,23.35,10.473,23.35,23.347C413.818,429.794,403.344,440.273,390.469,440.273z M390.469,396.661
				c-11.167,0-20.252,9.085-20.252,20.255c0,11.174,9.085,20.266,20.252,20.266c11.17,0,20.258-9.092,20.258-20.266
				C410.727,405.746,401.639,396.661,390.469,396.661z"/>
		</g>
		<g>
			<line style="fill:#FFFFFF;" x1="390.469" y1="416.916" x2="233.075" y2="258.987"/>
			<path d="M390.469,418.461c-0.397,0-0.792-0.15-1.094-0.454L231.98,260.079c-0.604-0.605-0.601-1.584,0.003-2.186
				c0.604-0.604,1.582-0.604,2.186,0.003l157.394,157.928c0.604,0.605,0.601,1.583-0.003,2.186
				C391.258,418.31,390.863,418.461,390.469,418.461z"/>
		</g>
		<g>
			<polygon style="fill:#41D3FF;" points="254.54,295.635 209.213,263.633 233.075,258.987 237.736,235.119 268.968,281.5 
				268.403,294.313 			"/>
			<path d="M254.54,297.181c-0.318,0-0.629-0.098-0.892-0.283l-45.328-32.001c-0.506-0.358-0.749-0.983-0.619-1.588
				c0.13-0.604,0.608-1.074,1.215-1.192l22.84-4.447l4.462-22.847c0.12-0.614,0.598-1.094,1.21-1.22
				c0.616-0.122,1.241,0.134,1.588,0.653l31.232,46.381c0.186,0.275,0.278,0.601,0.263,0.931l-0.564,12.813
				c-0.033,0.77-0.629,1.398-1.398,1.47l-13.863,1.322C254.639,297.178,254.588,297.181,254.54,297.181z M213.062,264.459
				l41.902,29.583l11.954-1.141l0.483-10.961l-28.863-42.864l-3.945,20.206c-0.121,0.619-0.604,1.1-1.221,1.221L213.062,264.459z"/>
		</g>
		<g>
			<line style="fill:#FFFFFF;" x1="394.931" y1="412.453" x2="386.006" y2="421.387"/>
			<path d="M386.006,422.933c-0.395,0-0.79-0.151-1.092-0.453c-0.604-0.602-0.604-1.582,0-2.186l8.924-8.934
				c0.604-0.604,1.582-0.604,2.186,0c0.604,0.602,0.604,1.582,0,2.186l-8.924,8.933
				C386.798,422.781,386.402,422.933,386.006,422.933z"/>
		</g>
	</g>
	<g>
		<g>
			<path d="M514.484,630.191H267.25c-0.855,0-1.546-0.691-1.546-1.545V479.512c0-8.661,7.045-15.707,15.705-15.707h218.915
				c8.66,0,15.705,7.046,15.705,15.707v149.135C516.03,629.5,515.339,630.191,514.484,630.191z M268.796,627.101h244.143V479.512
				c0-6.957-5.657-12.616-12.613-12.616H281.41c-6.956,0-12.614,5.659-12.614,12.616V627.101z"/>
		</g>
		<g>
			<path style="fill:#41D3FF;" d="M514.484,628.646V479.512c0-7.789-6.37-14.162-14.159-14.162H281.41
				c-7.786,0-14.159,6.373-14.159,14.162v149.135H514.484z"/>
			<path d="M514.484,630.191H267.25c-0.855,0-1.546-0.691-1.546-1.545V479.512c0-8.661,7.045-15.707,15.705-15.707h218.915
				c8.66,0,15.705,7.046,15.705,15.707v149.135C516.03,629.5,515.339,630.191,514.484,630.191z M268.796,627.101h244.143V479.512
				c0-6.957-5.657-12.616-12.613-12.616H281.41c-6.956,0-12.614,5.659-12.614,12.616V627.101z"/>
		</g>
		<g>
			<path style="fill:#FFFFFF;" d="M449.255,546.999c0,32.244-26.145,58.385-58.388,58.385c-32.246,0-58.385-26.141-58.385-58.385
				c0-32.246,26.139-58.387,58.385-58.387C423.11,488.612,449.255,514.753,449.255,546.999z"/>
			<path d="M390.867,606.931c-33.046,0-59.931-26.885-59.931-59.932c0-33.047,26.884-59.934,59.931-59.934
				c33.048,0,59.934,26.887,59.934,59.934C450.801,580.046,423.915,606.931,390.867,606.931z M390.867,490.157
				c-31.34,0-56.839,25.499-56.839,56.842c0,31.341,25.499,56.84,56.839,56.84c31.344,0,56.843-25.499,56.843-56.84
				C447.71,515.656,422.211,490.157,390.867,490.157z"/>
		</g>
		<g>
			<polygon style="fill:#41D3FF;" points="371.811,518.023 422.003,546.999 371.811,575.97 			"/>
			<path d="M371.811,577.516c-0.268,0-0.534-0.068-0.773-0.207c-0.479-0.275-0.773-0.786-0.773-1.339v-57.946
				c0-0.554,0.294-1.063,0.773-1.34c0.477-0.274,1.068-0.274,1.545,0l50.191,28.977c0.478,0.276,0.772,0.787,0.772,1.339
				c0,0.554-0.294,1.063-0.772,1.339l-50.191,28.971C372.346,577.447,372.079,577.516,371.811,577.516z M373.357,520.701v52.593
				l45.554-26.295L373.357,520.701z"/>
		</g>
		<g>
			<path d="M544.132,645.238H249.683c-0.854,0-1.545-0.691-1.545-1.545c0-0.854,0.691-1.546,1.545-1.546h294.449
				c0.854,0,1.545,0.691,1.545,1.546C545.677,644.547,544.986,645.238,544.132,645.238z"/>
		</g>
		<g>
			<path d="M538.833,738.17H254.987c-21.049-1.254-21.657-26.933-21.661-27.19c-0.005-0.311,0.086-0.617,0.256-0.878l35.772-53.988
				c0.287-0.432,0.772-0.691,1.29-0.691H523.17c0.519,0,1.002,0.26,1.289,0.691l35.773,53.988c0.17,0.261,0.261,0.564,0.256,0.878
				c-0.004,0.258-0.61,25.937-21.563,27.188C538.894,738.168,538.863,738.17,538.833,738.17z M236.432,711.399
				c0.155,3.361,1.781,22.676,18.647,23.683l283.707-0.003c16.82-1.041,18.441-20.323,18.596-23.68l-35.042-52.887H271.474
				L236.432,711.399z"/>
		</g>
		<g>
			<polygon style="fill:#F1F2F2;" points="442.765,720.651 351.053,720.651 372.219,684.585 421.601,684.585 			"/>
		</g>
		<g>
			<path style="fill:#231F20;" d="M481.381,686.132H346.901c-0.854,0-1.546-0.692-1.546-1.547c0-0.854,0.691-1.545,1.546-1.545
				h134.479c0.853,0,1.546,0.691,1.546,1.545C482.927,685.44,482.234,686.132,481.381,686.132z"/>
		</g>
		<g>
			<path style="fill:#231F20;" d="M518.998,701.073h-65.957c-0.854,0-1.545-0.692-1.545-1.547c0-0.855,0.69-1.545,1.545-1.545
				h65.957c0.854,0,1.546,0.69,1.546,1.545C520.544,700.381,519.852,701.073,518.998,701.073z"/>
		</g>
		<g>
			<path style="fill:#231F20;" d="M519,719.106c-0.513,0-1.012-0.254-1.306-0.718l-27.824-43.794
				c-0.458-0.72-0.244-1.675,0.476-2.132c0.719-0.457,1.675-0.245,2.133,0.475l27.824,43.794c0.458,0.72,0.244,1.676-0.477,2.133
				C519.569,719.026,519.283,719.106,519,719.106z"/>
		</g>
		<g>
			<path style="fill:#231F20;" d="M479.32,722.196c-0.575,0-1.126-0.32-1.393-0.872l-22.67-46.886
				c-0.372-0.769-0.05-1.694,0.718-2.064c0.773-0.365,1.695-0.048,2.064,0.718l22.67,46.886c0.372,0.769,0.051,1.693-0.718,2.066
				C479.775,722.148,479.546,722.196,479.32,722.196z"/>
		</g>
		<g>
			<path style="fill:#231F20;" d="M414.138,722.196h-34.462c-0.854,0-1.546-0.691-1.546-1.545c0-0.855,0.692-1.546,1.546-1.546
				h34.462c0.854,0,1.546,0.691,1.546,1.546C415.684,721.505,414.992,722.196,414.138,722.196z"/>
		</g>
		<g>
			<path style="fill:#231F20;" d="M346.901,711.458h-50.49c-0.855,0-1.546-0.691-1.546-1.546c0-0.854,0.691-1.545,1.546-1.545h50.49
				c0.854,0,1.546,0.691,1.546,1.545C348.447,710.767,347.756,711.458,346.901,711.458z"/>
		</g>
		<g>
			<path style="fill:#231F20;" d="M329.382,686.132h-48.944c-0.854,0-1.545-0.692-1.545-1.547c0-0.854,0.691-1.545,1.545-1.545
				h48.944c0.854,0,1.546,0.691,1.546,1.545C330.928,685.44,330.236,686.132,329.382,686.132z"/>
		</g>
		<g>
			<path style="fill:#231F20;" d="M277.535,711.458c-0.279,0-0.56-0.075-0.815-0.233c-0.725-0.451-0.947-1.403-0.497-2.129
				l22.476-36.146c0.452-0.725,1.406-0.944,2.13-0.497c0.725,0.451,0.946,1.404,0.496,2.13l-22.476,36.147
				C278.557,711.2,278.051,711.458,277.535,711.458z"/>
		</g>
		<g>
			<path style="fill:#231F20;" d="M310.961,701.073c-0.207,0-0.418-0.043-0.621-0.13c-0.782-0.346-1.136-1.257-0.794-2.038
				l10.69-24.347c0.343-0.781,1.253-1.133,2.038-0.793c0.782,0.344,1.137,1.256,0.794,2.037l-10.691,24.346
				C312.124,700.729,311.556,701.073,310.961,701.073z"/>
		</g>
	</g>
	<g>
		<g>
			<path style="fill:#E6E7E8;" d="M61.579,622.912c0,11.479,9.305,20.781,20.78,20.781h111.676c11.479,0,20.78-9.303,20.78-20.781
				V608.08H61.579V622.912z"/>
			<path d="M194.036,645.238H82.359c-12.311,0-22.326-10.016-22.326-22.326V608.08c0-0.854,0.691-1.545,1.545-1.545h153.236
				c0.855,0,1.546,0.69,1.546,1.545v14.832C216.361,635.223,206.346,645.238,194.036,645.238z M63.125,609.627v13.285
				c0,10.607,8.628,19.235,19.234,19.235h111.676c10.606,0,19.235-8.629,19.235-19.235v-13.285H63.125z"/>
		</g>
		<g>
			<path style="fill:#231F20;" d="M214.815,609.627H61.579c-0.854,0-1.545-0.692-1.545-1.547V387.897
				c0-0.854,0.691-1.546,1.545-1.546h153.236c0.855,0,1.546,0.692,1.546,1.546V608.08
				C216.361,608.935,215.67,609.627,214.815,609.627z M63.125,606.535H213.27V389.442H63.125V606.535z"/>
		</g>
		<g>
			<path style="fill:#E6E7E8;" d="M214.815,380.105c0-11.473-9.301-20.777-20.78-20.777H82.359c-11.476,0-20.78,9.305-20.78,20.777
				v7.792h153.236V380.105z"/>
			<path d="M214.815,389.442H61.579c-0.854,0-1.545-0.691-1.545-1.546v-7.792c0-12.309,10.015-22.323,22.326-22.323h111.676
				c12.311,0,22.326,10.014,22.326,22.323v7.792C216.361,388.751,215.67,389.442,214.815,389.442z M63.125,386.351H213.27v-6.246
				c0-10.605-8.628-19.232-19.235-19.232H82.359c-10.606,0-19.234,8.627-19.234,19.232V386.351z"/>
		</g>
	</g>
	<g>
		<path style="fill:#F38184;" d="M194.468,691.841c0,5.561-4.508,10.071-10.075,10.071c-5.564,0-10.071-4.511-10.071-10.071
			c0-5.568,4.507-10.078,10.071-10.078C189.96,681.763,194.468,686.273,194.468,691.841z"/>
		<path d="M184.393,703.457c-6.406,0-11.617-5.21-11.617-11.616c0-6.41,5.211-11.624,11.617-11.624
			c6.408,0,11.621,5.214,11.621,11.624C196.014,698.247,190.801,703.457,184.393,703.457z M184.393,683.309
			c-4.701,0-8.525,3.826-8.525,8.532c0,4.699,3.825,8.525,8.525,8.525c4.703,0,8.529-3.826,8.529-8.525
			C192.922,687.135,189.096,683.309,184.393,683.309z"/>
	</g>
	<g>
		<path style="fill:#F38184;" d="M148.27,691.841c0,5.561-4.507,10.071-10.071,10.071c-5.567,0-10.077-4.511-10.077-10.071
			c0-5.568,4.51-10.078,10.077-10.078C143.763,681.763,148.27,686.273,148.27,691.841z"/>
		<path d="M138.199,703.457c-6.409,0-11.623-5.21-11.623-11.616c0-6.41,5.214-11.624,11.623-11.624
			c6.407,0,11.617,5.214,11.617,11.624C149.816,698.247,144.605,703.457,138.199,703.457z M138.199,683.309
			c-4.705,0-8.531,3.826-8.531,8.532c0,4.699,3.826,8.525,8.531,8.525c4.701,0,8.526-3.826,8.526-8.525
			C146.725,687.135,142.899,683.309,138.199,683.309z"/>
	</g>
	<g>
		<path style="fill:#F38184;" d="M102.073,691.841c0,5.561-4.51,10.071-10.071,10.071c-5.564,0-10.078-4.511-10.078-10.071
			c0-5.568,4.514-10.078,10.078-10.078C97.563,681.763,102.073,686.273,102.073,691.841z"/>
		<path d="M92.002,703.457c-6.409,0-11.623-5.21-11.623-11.616c0-6.41,5.214-11.624,11.623-11.624
			c6.406,0,11.617,5.214,11.617,11.624C103.619,698.247,98.408,703.457,92.002,703.457z M92.002,683.309
			c-4.705,0-8.532,3.826-8.532,8.532c0,4.699,3.827,8.525,8.532,8.525c4.701,0,8.525-3.826,8.525-8.525
			C100.527,687.135,96.703,683.309,92.002,683.309z"/>
	</g>
	<g>
		<g>
			<g>
				<path style="fill:#FFFFFF;" d="M738.056,543.848c0-5.514-4.469-9.978-9.98-9.978h-149.05c-5.504,0-9.972,4.464-9.972,9.978
					l84.503,62.05L738.056,543.848z"/>
				<path d="M653.557,607.443c-0.322,0-0.643-0.1-0.916-0.301l-84.502-62.05c-0.396-0.291-0.631-0.753-0.631-1.245
					c0-6.354,5.167-11.523,11.518-11.523h149.05c6.356,0,11.525,5.17,11.525,11.523c0,0.492-0.232,0.954-0.63,1.245l-84.5,62.05
					C654.199,607.344,653.877,607.443,653.557,607.443z M570.632,543.09l82.925,60.891l82.92-60.891
					c-0.385-4.296-4.006-7.675-8.401-7.675h-149.05C574.634,535.415,571.017,538.794,570.632,543.09z"/>
			</g>
			<g>
				<path style="fill:#E6E7E8;" d="M653.557,605.898l-84.503-62.05l0,0v83.31c0,5.509,4.468,9.977,9.972,9.977h149.05
					c5.512,0,9.98-4.469,9.98-9.977v-83.31l0,0L653.557,605.898z"/>
				<path d="M728.075,638.681h-149.05c-6.351,0-11.518-5.169-11.518-11.523v-83.31c0-0.583,0.328-1.116,0.847-1.38
					c0.525-0.26,1.146-0.211,1.613,0.135l83.589,61.378l83.585-61.378c0.468-0.346,1.092-0.394,1.613-0.135
					c0.518,0.264,0.846,0.797,0.846,1.38v83.31C739.601,633.512,734.432,638.681,728.075,638.681z M570.599,546.9v80.258
					c0,4.648,3.78,8.432,8.427,8.432h149.05c4.65,0,8.435-3.783,8.435-8.432V546.9l-82.039,60.242c-0.544,0.402-1.286,0.402-1.83,0
					L570.599,546.9z"/>
			</g>
		</g>
		<g>
			<path d="M681.107,623.362h-55.108c-0.855,0-1.547-0.691-1.547-1.545c0-0.854,0.692-1.547,1.547-1.547h55.108
				c0.854,0,1.547,0.692,1.547,1.547C682.654,622.671,681.962,623.362,681.107,623.362z"/>
		</g>
	</g>
	<g>
		<polygon style="fill:#41D3FF;" points="600.922,697.221 569.054,678.822 600.922,660.425 		"/>
		<path d="M600.922,698.766c-0.267,0-0.534-0.068-0.772-0.206l-31.869-18.398c-0.479-0.275-0.772-0.787-0.772-1.339
			c0-0.553,0.294-1.064,0.772-1.339l31.869-18.398c0.478-0.275,1.068-0.275,1.546,0c0.478,0.276,0.772,0.786,0.772,1.34v36.796
			c0,0.553-0.294,1.063-0.772,1.339C601.456,698.697,601.19,698.766,600.922,698.766z M572.146,678.822l27.232,15.72v-31.44
			L572.146,678.822z"/>
	</g>
	<g>
		<path d="M728.184,667.069H622.043c-0.855,0-1.545-0.691-1.545-1.546c0-0.854,0.69-1.546,1.545-1.546h106.141
			c0.854,0,1.545,0.691,1.545,1.546C729.728,666.378,729.038,667.069,728.184,667.069z"/>
	</g>
	<g>
		<path d="M709.124,691.284h-87.081c-0.855,0-1.545-0.69-1.545-1.545s0.69-1.547,1.545-1.547h87.081
			c0.855,0,1.546,0.692,1.546,1.547S709.979,691.284,709.124,691.284z"/>
	</g>
	<g>
		<path d="M653.553,716.017h-31.51c-0.855,0-1.545-0.691-1.545-1.545c0-0.855,0.69-1.547,1.545-1.547h31.51
			c0.856,0,1.546,0.691,1.546,1.547C655.099,715.325,654.408,716.017,653.553,716.017z"/>
	</g>
	<g>
		<path d="M224.271,738.17h-49.95c-0.854,0-1.546-0.691-1.546-1.546c0-0.854,0.691-1.545,1.546-1.545h49.95
			c0.855,0,1.545,0.691,1.545,1.545C225.817,737.479,225.126,738.17,224.271,738.17z"/>
	</g>
	<g>
		<path d="M152.657,738.17h-24.536c-0.854,0-1.546-0.691-1.546-1.546c0-0.854,0.691-1.545,1.546-1.545h24.536
			c0.854,0,1.546,0.691,1.546,1.545C154.203,737.479,153.511,738.17,152.657,738.17z"/>
	</g>
	<g>
		<rect x="104.525" y="409.274" style="fill:#F38184;" width="68.176" height="68.176"/>
		<path d="M172.701,478.996h-68.176c-0.854,0-1.546-0.692-1.546-1.546v-68.176c0-0.855,0.691-1.546,1.546-1.546h68.176
			c0.854,0,1.545,0.691,1.545,1.546v68.176C174.246,478.304,173.555,478.996,172.701,478.996z M106.07,475.904h65.085V410.82H106.07
			V475.904z"/>
	</g>
	<g>
		<path d="M93.78,444.908H72.14c-0.854,0-1.546-0.691-1.546-1.546s0.691-1.546,1.546-1.546H93.78c0.854,0,1.545,0.691,1.545,1.546
			S94.634,444.908,93.78,444.908z"/>
	</g>
	<g>
		<path d="M205.091,444.908h-21.64c-0.855,0-1.546-0.691-1.546-1.546s0.691-1.546,1.546-1.546h21.64
			c0.855,0,1.546,0.691,1.546,1.546S205.946,444.908,205.091,444.908z"/>
	</g>
	<g>
		<rect x="109.603" y="620.477" style="fill:#FFFFFF;" width="57.192" height="10.819"/>
		<path d="M166.795,632.843h-57.192c-0.855,0-1.546-0.692-1.546-1.547v-10.819c0-0.855,0.691-1.546,1.546-1.546h57.192
			c0.855,0,1.546,0.691,1.546,1.546v10.819C168.341,632.15,167.65,632.843,166.795,632.843z M111.148,629.751h54.101v-7.728h-54.101
			V629.751z"/>
	</g>
	<g>
		<path style="fill:#F38184;" d="M739.641,265.324c0,9.136-7.402,16.535-16.536,16.535h-165.46c-9.126,0-16.529-7.399-16.529-16.535
			V99.87c0-9.133,7.403-16.532,16.529-16.532h165.46c9.134,0,16.536,7.399,16.536,16.532V265.324z"/>
		<path d="M723.104,283.405h-165.46c-9.967,0-18.074-8.111-18.074-18.081V99.87c0-9.969,8.107-18.078,18.074-18.078h165.46
			c9.971,0,18.082,8.109,18.082,18.078v165.455C741.186,275.294,733.075,283.405,723.104,283.405z M557.644,84.883
			c-8.262,0-14.984,6.724-14.984,14.987v165.455c0,8.265,6.723,14.99,14.984,14.99h165.46c8.266,0,14.99-6.725,14.99-14.99V99.87
			c0-8.263-6.725-14.987-14.99-14.987H557.644z"/>
	</g>
	<g>
		<g>
			<path style="fill:#FFFFFF;" d="M667.25,157.071c0,14.845-12.031,26.873-26.872,26.873l0,0c-14.842,0-26.872-12.028-26.872-26.873
				v-16.973c0-14.839,12.03-26.872,26.872-26.872l0,0c14.841,0,26.872,12.034,26.872,26.872V157.071z"/>
			<path d="M640.378,185.489c-15.671,0-28.419-12.748-28.419-28.418v-16.973c0-15.67,12.748-28.418,28.419-28.418
				c15.67,0,28.418,12.748,28.418,28.418v16.973C668.796,172.741,656.048,185.489,640.378,185.489z M640.378,114.771
				c-13.964,0-25.327,11.362-25.327,25.327v16.973c0,13.965,11.363,25.327,25.327,25.327c13.965,0,25.327-11.362,25.327-25.327
				v-16.973C665.705,126.133,654.343,114.771,640.378,114.771z"/>
		</g>
		<g>
			<path style="fill:#FFFFFF;" d="M696.677,195.989l-29.635-5.09l-26.664,9.661l-26.664-9.661l-29.635,5.09
				c0,0-20.988,3.412-22.148,21.574v64.148h78.446h78.446v-64.148C717.665,199.401,696.677,195.989,696.677,195.989z"/>
			<path d="M718.824,283.257H561.932c-0.854,0-1.546-0.691-1.546-1.546v-64.148c1.228-19.269,23.224-23.065,23.445-23.101
				l29.622-5.086c0.262-0.044,0.535-0.021,0.787,0.069l26.138,9.471l26.137-9.471c0.251-0.09,0.527-0.113,0.789-0.069l29.634,5.09
				c0.209,0.033,22.206,3.828,23.43,22.999l0.003,64.247C720.37,282.566,719.679,283.257,718.824,283.257z M563.477,280.165h153.802
				v-62.602c-1.064-16.599-20.044-19.916-20.852-20.048l-29.244-5.024l-26.279,9.522c-0.341,0.124-0.712,0.124-1.053,0
				l-26.279-9.522l-29.232,5.021c-0.819,0.136-19.8,3.453-20.865,20.149L563.477,280.165z"/>
		</g>
		<g>
			<path d="M596.324,283.257c-0.854,0-1.545-0.691-1.545-1.546v-41.735c0-0.854,0.69-1.545,1.545-1.545
				c0.855,0,1.546,0.691,1.546,1.545v41.735C597.87,282.566,597.179,283.257,596.324,283.257z"/>
		</g>
		<g>
			<path d="M684.432,283.257c-0.855,0-1.546-0.691-1.546-1.546v-41.735c0-0.854,0.69-1.545,1.546-1.545
				c0.854,0,1.546,0.691,1.546,1.545v41.735C685.977,282.566,685.286,283.257,684.432,283.257z"/>
		</g>
		<g>
			<path style="fill:#F38184;" d="M649.375,219.752v12.927c0,6.425,5.21,11.636,11.638,11.636c6.422,0,11.633-5.211,11.633-11.636
				v-12.927H649.375z"/>
			<path d="M661.013,245.86c-7.27,0-13.185-5.913-13.185-13.181v-12.927c0-0.854,0.691-1.546,1.547-1.546h23.271
				c0.854,0,1.545,0.691,1.545,1.546v12.927C674.19,239.948,668.28,245.86,661.013,245.86z M650.92,221.297v11.382
				c0,5.564,4.527,10.09,10.093,10.09c5.561,0,10.086-4.525,10.086-10.09v-11.382H650.92z"/>
		</g>
		<g>
			<path d="M640.378,258.299c-0.854,0-1.546-0.691-1.546-1.546v-10.001c0-0.855,0.691-1.546,1.546-1.546s1.546,0.691,1.546,1.546
				v10.001C641.924,257.608,641.232,258.299,640.378,258.299z"/>
		</g>
		<g>
			<path d="M640.378,276.302c-0.854,0-1.546-0.692-1.546-1.546v-10.003c0-0.854,0.691-1.546,1.546-1.546s1.546,0.692,1.546,1.546
				v10.003C641.924,275.61,641.232,276.302,640.378,276.302z"/>
		</g>
	</g>
	<g>
		<g>
			
				<ellipse transform="matrix(0.9999 -0.0165 0.0165 0.9999 -6.756 10.7866)" style="fill:#41D3FF;" cx="649.375" cy="414.237" rx="86.164" ry="86.16"/>
			<path d="M649.375,501.943c-48.363,0-87.709-39.344-87.709-87.706c0-48.361,39.346-87.706,87.709-87.706
				c48.363,0,87.708,39.344,87.708,87.706C737.083,462.6,697.738,501.943,649.375,501.943z M649.375,329.624
				c-46.658,0-84.617,37.958-84.617,84.614c0,46.656,37.959,84.614,84.617,84.614c46.657,0,84.617-37.958,84.617-84.614
				C733.992,367.582,696.032,329.624,649.375,329.624z"/>
		</g>
		<g>
			<path style="fill:#FFFFFF;" d="M687.993,475.496c-33.833,21.333-78.542,11.198-99.874-22.636
				c-21.342-33.829-11.201-78.552,22.631-99.885c33.833-21.332,78.56-11.188,99.89,22.643
				C731.97,409.449,721.825,454.167,687.993,475.496z"/>
			<path d="M649.44,488.211c-25.586,0-48.999-12.905-62.629-34.526c-10.542-16.709-13.941-36.524-9.575-55.795
				c4.367-19.267,15.976-35.683,32.689-46.221c11.835-7.461,25.451-11.406,39.376-11.406c25.595,0,49.014,12.909,62.646,34.531
				c10.537,16.71,13.933,36.526,9.563,55.793c-4.369,19.268-15.979,35.681-32.691,46.218
				C676.981,484.268,663.364,488.211,649.44,488.211z M649.301,343.354c-13.341,0-26.389,3.78-37.728,10.929
				c-16.014,10.098-27.139,25.827-31.322,44.29c-4.185,18.465-0.926,37.451,9.175,53.463c13.062,20.717,35.497,33.084,60.015,33.084
				c13.34,0,26.388-3.78,37.729-10.931c16.013-10.098,27.139-25.823,31.325-44.286c4.186-18.463,0.933-37.448-9.162-53.461
				C696.269,355.725,673.827,343.354,649.301,343.354z"/>
		</g>
		<g>
			<path style="fill:#41D3FF;" d="M662.453,414.237c0,7.222-5.857,13.079-13.078,13.079c-7.225,0-13.072-5.857-13.072-13.079
				s5.848-13.075,13.072-13.075C656.596,401.162,662.453,407.016,662.453,414.237z"/>
			<path d="M649.375,428.862c-8.06,0-14.619-6.561-14.619-14.625c0-8.061,6.559-14.621,14.619-14.621
				c8.063,0,14.623,6.559,14.623,14.621C663.998,422.302,657.438,428.862,649.375,428.862z M649.375,402.708
				c-6.356,0-11.527,5.172-11.527,11.529c0,6.359,5.171,11.533,11.527,11.533c6.359,0,11.532-5.174,11.532-11.533
				C660.907,407.88,655.734,402.708,649.375,402.708z"/>
		</g>
		<g>
			<line style="fill:#FFFFFF;" x1="636.626" y1="411.349" x2="603.22" y2="403.78"/>
			<path d="M636.627,412.895c-0.114,0-0.229-0.013-0.343-0.038l-33.405-7.569c-0.834-0.188-1.356-1.017-1.168-1.849
				c0.19-0.835,1.021-1.351,1.851-1.167l33.404,7.568c0.833,0.189,1.356,1.019,1.168,1.85
				C637.971,412.408,637.334,412.895,636.627,412.895z"/>
		</g>
		<g>
			<line style="fill:#FFFFFF;" x1="660.439" y1="407.264" x2="698.524" y2="383.25"/>
			<path d="M660.441,408.81c-0.515,0-1.015-0.255-1.309-0.722c-0.457-0.722-0.241-1.678,0.482-2.132l38.086-24.013
				c0.721-0.451,1.673-0.237,2.13,0.483c0.456,0.722,0.24,1.677-0.483,2.131l-38.084,24.014
				C661.008,408.732,660.723,408.81,660.441,408.81z"/>
		</g>
		<g>
			<line style="fill:#FFFFFF;" x1="649.375" y1="349.45" x2="649.375" y2="360.716"/>
			<path d="M649.375,362.262c-0.856,0-1.547-0.691-1.547-1.546V349.45c0-0.855,0.691-1.546,1.547-1.546
				c0.854,0,1.545,0.691,1.545,1.546v11.267C650.92,361.571,650.229,362.262,649.375,362.262z"/>
		</g>
		<g>
			<line style="fill:#FFFFFF;" x1="603.565" y1="368.424" x2="611.528" y2="376.391"/>
			<path d="M611.528,377.937c-0.395,0-0.791-0.151-1.094-0.453l-7.964-7.967c-0.604-0.604-0.604-1.582,0-2.186
				c0.604-0.604,1.583-0.604,2.186,0l7.965,7.967c0.604,0.604,0.604,1.582,0,2.186C612.318,377.786,611.923,377.937,611.528,377.937
				z"/>
		</g>
		<g>
			<line style="fill:#FFFFFF;" x1="584.58" y1="414.237" x2="595.853" y2="414.234"/>
			<path d="M584.58,415.783c-0.853,0-1.546-0.691-1.546-1.546c0-0.853,0.691-1.546,1.546-1.546l11.273-0.002
				c0.853,0,1.545,0.69,1.545,1.545c0,0.853-0.69,1.546-1.545,1.546L584.58,415.783z"/>
		</g>
		<g>
			<line style="fill:#FFFFFF;" x1="603.561" y1="460.048" x2="611.524" y2="452.081"/>
			<path d="M603.561,461.595c-0.395,0-0.792-0.151-1.094-0.454c-0.604-0.603-0.604-1.581,0-2.185l7.965-7.968
				c0.603-0.605,1.581-0.605,2.186,0c0.604,0.603,0.604,1.582,0,2.186l-7.964,7.966
				C604.352,461.443,603.957,461.595,603.561,461.595z"/>
		</g>
		<g>
			<line style="fill:#FFFFFF;" x1="649.375" y1="479.028" x2="649.371" y2="467.762"/>
			<path d="M649.375,480.575c-0.853,0-1.547-0.691-1.547-1.547l-0.002-11.267c0-0.852,0.69-1.545,1.545-1.545
				c0.854,0,1.546,0.69,1.546,1.545l0.003,11.267C650.92,479.882,650.229,480.575,649.375,480.575z"/>
		</g>
		<g>
			<line style="fill:#FFFFFF;" x1="695.188" y1="460.051" x2="687.222" y2="452.088"/>
			<path d="M695.188,461.598c-0.395,0-0.791-0.151-1.094-0.453l-7.967-7.964c-0.604-0.604-0.604-1.583,0-2.187
				c0.604-0.604,1.582-0.604,2.187,0l7.967,7.965c0.603,0.603,0.603,1.581,0,2.185C695.978,461.446,695.584,461.598,695.188,461.598
				z"/>
		</g>
		<g>
			<line style="fill:#FFFFFF;" x1="714.163" y1="414.24" x2="702.899" y2="414.24"/>
			<path d="M714.163,415.786h-11.264c-0.855,0-1.546-0.69-1.546-1.546c0-0.854,0.69-1.545,1.546-1.545h11.264
				c0.854,0,1.546,0.691,1.546,1.545C715.709,415.096,715.018,415.786,714.163,415.786z"/>
		</g>
		<g>
			<line style="fill:#FFFFFF;" x1="695.197" y1="368.427" x2="687.225" y2="376.395"/>
			<path d="M687.225,377.94c-0.397,0-0.792-0.151-1.093-0.453c-0.604-0.603-0.604-1.583,0-2.185l7.973-7.967
				c0.604-0.604,1.582-0.604,2.187,0c0.603,0.604,0.603,1.583,0,2.185l-7.975,7.967C688.016,377.789,687.62,377.94,687.225,377.94z"
				/>
		</g>
	</g>
	<g>
		<g>
			<path style="fill:#FFFFFF;" d="M138.199,324.047c-15.732,0.036-28.481,12.831-28.451,28.575
				c0.027,15.75,12.824,28.479,28.566,28.46c15.747-0.033,28.475-12.825,28.448-28.566
				C166.723,336.77,153.946,324.029,138.199,324.047z"/>
			<path d="M138.28,382.628c-16.556,0-30.05-13.46-30.078-30.003c-0.032-16.573,13.422-30.086,29.994-30.124
				c16.579,0,30.071,13.463,30.112,30.011c0.028,16.571-13.426,30.082-29.991,30.116C138.315,382.628,138.28,382.628,138.28,382.628
				z M138.232,325.593c-14.896,0.035-26.968,12.158-26.939,27.026c0.025,14.841,12.132,26.918,26.987,26.918v1.546l0.032-1.546
				c14.859-0.032,26.929-12.151,26.904-27.017C165.179,337.672,153.074,325.593,138.232,325.593z"/>
		</g>
		<g>
			<path style="fill:#41D3FF;" d="M138.145,298.802c-29.683,0.067-53.724,24.179-53.66,53.875
				c0.036,18.513,9.425,34.807,23.675,44.452l30.287,56.859l30.07-56.98c14.213-9.703,23.549-26.029,23.5-44.543
				C191.974,322.764,167.846,298.745,138.145,298.802z M138.314,381.083c-15.742,0.018-28.539-12.71-28.566-28.46
				c-0.031-15.745,12.719-28.539,28.451-28.575c15.748-0.018,28.524,12.722,28.563,28.469
				C166.789,368.258,154.061,381.05,138.314,381.083z"/>
			<path d="M138.446,455.535c-0.57,0-1.096-0.316-1.364-0.819l-30.107-56.524c-15.022-10.32-23.999-27.306-24.036-45.512
				c-0.066-30.492,24.699-55.355,55.203-55.423c30.565,0,55.376,24.765,55.42,55.208c0.047,18.195-8.864,35.214-23.856,45.602
				l-29.892,56.644c-0.267,0.506-0.792,0.823-1.364,0.825C138.448,455.535,138.448,455.535,138.446,455.535z M138.251,300.348
				c-28.901,0.065-52.282,23.538-52.22,52.326c0.033,17.311,8.63,33.451,22.996,43.175c0.208,0.142,0.379,0.331,0.498,0.554
				l28.916,54.287l28.708-54.403c0.118-0.222,0.288-0.414,0.497-0.555c14.337-9.788,22.871-25.961,22.825-43.262
				C190.43,323.729,167.004,300.348,138.251,300.348z M138.317,382.628c-16.593,0-30.086-13.458-30.115-30.003
				c-0.032-16.573,13.422-30.086,29.994-30.124c0,0,0.035,0,0.036,0c16.543,0,30.035,13.463,30.076,30.011
				C168.336,369.083,154.882,382.594,138.317,382.628z M138.232,324.047l-0.032,1.546c-14.864,0.035-26.936,12.158-26.907,27.026
				c0.025,14.843,12.132,26.918,26.987,26.918c14.892-0.032,26.961-12.151,26.936-27.017c-0.038-14.848-12.143-26.927-26.984-26.927
				V324.047z"/>
		</g>
	</g>
	<g>
		<g>
			<path d="M411.047,306.44c-0.854,0-1.546-0.691-1.546-1.545v-13.912c0-0.855,0.691-1.546,1.546-1.546
				c0.855,0,1.545,0.691,1.545,1.546v13.912C412.592,305.749,411.901,306.44,411.047,306.44z"/>
		</g>
		<g>
			<path d="M411.047,274.265c-0.854,0-1.546-0.691-1.546-1.546v-27.396c0-0.854,0.691-1.546,1.546-1.546
				c0.855,0,1.545,0.691,1.545,1.546v27.396C412.592,273.574,411.901,274.265,411.047,274.265z M411.047,228.607
				c-0.854,0-1.546-0.691-1.546-1.546v-27.396c0-0.854,0.691-1.546,1.546-1.546c0.855,0,1.545,0.691,1.545,1.546v27.396
				C412.592,227.915,411.901,228.607,411.047,228.607z"/>
		</g>
		<g>
			<path d="M411.047,182.947c-0.854,0-1.546-0.691-1.546-1.545v-13.912c0-0.854,0.691-1.545,1.546-1.545h13.911
				c0.854,0,1.546,0.691,1.546,1.545c0,0.855-0.691,1.546-1.546,1.546h-12.366v12.366
				C412.592,182.255,411.901,182.947,411.047,182.947z"/>
		</g>
		<g>
			<path d="M510.163,169.035h-25.561c-0.854,0-1.545-0.691-1.545-1.546c0-0.854,0.691-1.545,1.545-1.545h25.561
				c0.854,0,1.545,0.691,1.545,1.545C511.708,168.344,511.018,169.035,510.163,169.035z M467.56,169.035h-25.561
				c-0.854,0-1.546-0.691-1.546-1.546c0-0.854,0.691-1.545,1.546-1.545h25.561c0.854,0,1.546,0.691,1.546,1.545
				C469.105,168.344,468.414,169.035,467.56,169.035z"/>
		</g>
		<g>
			<path d="M541.115,169.035h-13.911c-0.854,0-1.547-0.691-1.547-1.546c0-0.854,0.692-1.545,1.547-1.545h13.911
				c0.854,0,1.545,0.691,1.545,1.545C542.66,168.344,541.97,169.035,541.115,169.035z"/>
		</g>
	</g>
	<g>
		<g>
			<path d="M359.946,308.695c-0.854,0-1.545-0.691-1.545-1.545v-13.912c0-0.855,0.691-1.546,1.545-1.546
				c0.854,0,1.546,0.691,1.546,1.546v13.912C361.492,308.004,360.801,308.695,359.946,308.695z"/>
		</g>
		<g>
			<path d="M359.946,278.051c-0.854,0-1.545-0.692-1.545-1.546v-25.1c0-0.855,0.691-1.546,1.545-1.546
				c0.854,0,1.546,0.691,1.546,1.546v25.1C361.492,277.359,360.801,278.051,359.946,278.051z M359.946,236.216
				c-0.854,0-1.545-0.691-1.545-1.546v-25.1c0-0.854,0.691-1.546,1.545-1.546c0.854,0,1.546,0.692,1.546,1.546v25.1
				C361.492,235.525,360.801,236.216,359.946,236.216z M359.946,194.383c-0.854,0-1.545-0.692-1.545-1.546v-25.1
				c0-0.855,0.691-1.546,1.545-1.546c0.854,0,1.546,0.691,1.546,1.546v25.1C361.492,193.691,360.801,194.383,359.946,194.383z"/>
		</g>
		<g>
			<path d="M359.946,152.548c-0.854,0-1.545-0.691-1.545-1.546v-12.366h-12.366c-0.855,0-1.546-0.691-1.546-1.545
				c0-0.855,0.691-1.546,1.546-1.546h13.911c0.854,0,1.546,0.691,1.546,1.546v13.911
				C361.492,151.857,360.801,152.548,359.946,152.548z"/>
		</g>
		<g>
			<path d="M335.046,138.637h-16.484c-0.854,0-1.546-0.691-1.546-1.545c0-0.855,0.692-1.546,1.546-1.546h16.484
				c0.854,0,1.546,0.691,1.546,1.546C336.592,137.945,335.9,138.637,335.046,138.637z"/>
		</g>
		<g>
			<path d="M307.572,138.637h-13.912c-0.854,0-1.545-0.691-1.545-1.545c0-0.855,0.691-1.546,1.545-1.546h13.912
				c0.854,0,1.546,0.691,1.546,1.546C309.118,137.945,308.427,138.637,307.572,138.637z"/>
		</g>
	</g>
	<g>
		<g>
			<path style="fill:#FFFFFF;" d="M518.05,262.546c-13.316,9.912-16.07,28.738-6.174,42.059c9.915,13.311,28.75,16.073,42.07,6.164
				c13.316-9.914,16.073-28.744,6.159-42.061C550.197,255.392,531.367,252.638,518.05,262.546z"/>
		</g>
		<g>
			<path style="fill:#E6E7E8;" d="M597.235,294.273c1.221-9.712,0.13-19.72-3.387-29.146l-16.846-0.797
				c-1.036-1.907-2.216-3.768-3.551-5.555c-1.335-1.79-2.771-3.451-4.29-5l4.055-16.363c-8.019-6.074-17.293-9.98-26.93-11.611
				l-9.123,14.183c-4.375-0.112-8.771,0.387-13.064,1.516l-12.136-11.705c-4.465,1.887-8.777,4.317-12.822,7.339
				c-4.055,3.019-7.62,6.442-10.715,10.171l7.727,14.993c-2.314,3.789-4.05,7.858-5.196,12.076l-16.2,4.658
				c-1.214,9.721-0.13,19.717,3.382,29.146l16.852,0.8c1.038,1.908,2.218,3.768,3.547,5.558c1.334,1.79,2.774,3.447,4.293,4.993
				l-4.064,16.366c8.028,6.071,17.303,9.978,26.949,11.611l9.111-14.186c4.365,0.118,8.767-0.383,13.065-1.509l12.146,11.704
				c4.456-1.893,8.762-4.323,12.816-7.336c4.058-3.025,7.62-6.449,10.711-10.18l-7.727-14.986c2.312-3.789,4.051-7.859,5.198-12.079
				L597.235,294.273z M553.946,310.77c-13.32,9.909-32.155,7.146-42.07-6.164c-9.897-13.32-7.143-32.147,6.174-42.059
				c13.317-9.908,32.147-7.155,42.056,6.162C570.019,282.025,567.263,300.855,553.946,310.77z"/>
			<path d="M525.716,349.054c-0.087,0-0.173-0.007-0.259-0.021c-10.017-1.697-19.568-5.813-27.622-11.902
				c-0.493-0.375-0.718-1.005-0.567-1.606l3.858-15.535c-1.388-1.459-2.673-2.979-3.827-4.528c-1.174-1.581-2.261-3.251-3.241-4.978
				l-15.993-0.759c-0.617-0.03-1.159-0.424-1.375-1.005c-3.525-9.468-4.726-19.799-3.466-29.876
				c0.077-0.614,0.512-1.123,1.106-1.293l15.373-4.421c1.112-3.818,2.684-7.473,4.682-10.884l-7.332-14.229
				c-0.283-0.551-0.21-1.218,0.186-1.695c3.239-3.903,6.935-7.41,10.979-10.423c4.028-3.009,8.451-5.54,13.144-7.523
				c0.567-0.246,1.228-0.121,1.675,0.311l11.519,11.109c3.843-0.938,7.792-1.438,11.774-1.366l8.658-13.46
				c0.335-0.521,0.952-0.788,1.558-0.689c10.018,1.695,19.562,5.812,27.605,11.904c0.494,0.373,0.716,1.004,0.568,1.603
				l-3.851,15.534c1.379,1.454,2.663,2.976,3.824,4.533c1.173,1.571,2.263,3.241,3.246,4.975l15.983,0.757
				c0.62,0.028,1.159,0.424,1.375,1.004c3.538,9.476,4.739,19.809,3.474,29.879c-0.076,0.613-0.512,1.122-1.106,1.293l-15.373,4.422
				c-1.11,3.816-2.684,7.471-4.685,10.889l7.335,14.223c0.284,0.549,0.212,1.216-0.183,1.693
				c-3.235,3.904-6.927,7.413-10.979,10.434c-4.044,3.005-8.462,5.535-13.137,7.519c-0.571,0.241-1.228,0.122-1.676-0.309
				l-11.527-11.108c-3.861,0.936-7.81,1.414-11.777,1.362l-8.646,13.46C526.729,348.791,526.235,349.054,525.716,349.054z
				 M500.516,335.271c7.212,5.261,15.626,8.885,24.455,10.535l8.555-13.318c0.293-0.454,0.771-0.685,1.344-0.71
				c4.235,0.123,8.505-0.378,12.633-1.461c0.514-0.131,1.075,0.008,1.465,0.384l11.402,10.99c4.102-1.826,7.986-4.093,11.563-6.75
				c3.582-2.67,6.869-5.744,9.788-9.147l-7.257-14.07c-0.248-0.478-0.227-1.052,0.055-1.512c2.215-3.63,3.905-7.56,5.025-11.681
				c0.143-0.521,0.545-0.93,1.065-1.08l15.212-4.377c0.964-8.917-0.093-18.019-3.074-26.448l-15.816-0.749
				c-0.54-0.025-1.027-0.332-1.285-0.807c-1.019-1.878-2.174-3.684-3.432-5.367c-1.245-1.672-2.644-3.301-4.154-4.842
				c-0.376-0.383-0.525-0.933-0.398-1.454l3.808-15.366c-7.201-5.262-15.611-8.886-24.439-10.535l-8.566,13.317
				c-0.294,0.453-0.814,0.746-1.34,0.71l-1.16-0.015c-3.876,0-7.737,0.498-11.472,1.48c-0.523,0.136-1.077-0.009-1.466-0.382
				l-11.395-10.989c-4.116,1.822-8.004,4.089-11.564,6.749c-3.581,2.667-6.871,5.739-9.794,9.142l7.253,14.076
				c0.248,0.48,0.227,1.053-0.054,1.513c-2.212,3.624-3.903,7.552-5.025,11.677c-0.142,0.521-0.545,0.93-1.063,1.079l-15.211,4.375
				c-0.961,8.924,0.095,18.026,3.066,26.448l15.824,0.752c0.539,0.026,1.025,0.331,1.283,0.805c1.021,1.873,2.174,3.682,3.431,5.377
				c1.234,1.656,2.634,3.281,4.155,4.83c0.377,0.384,0.528,0.934,0.398,1.456L500.516,335.271z M536.021,318.26
				c-9.957,0-19.446-4.759-25.385-12.731c-10.392-13.987-7.479-33.824,6.49-44.222c5.498-4.092,12.017-6.253,18.85-6.253
				c9.953,0,19.438,4.759,25.369,12.732c10.407,13.978,7.5,33.816-6.476,44.223C549.372,316.098,542.854,318.26,536.021,318.26z
				 M535.977,258.145c-6.163,0-12.043,1.951-17.005,5.643c-12.603,9.38-15.23,27.277-5.854,39.895
				c5.435,7.298,13.784,11.485,22.904,11.485c6.162,0,12.042-1.95,17.003-5.639c12.609-9.388,15.23-27.286,5.841-39.897
				C553.433,262.331,545.092,258.145,535.977,258.145z"/>
		</g>
	</g>
	<g>
		<rect x="84.484" y="497.988" style="fill:#F1F2F2;" width="98.967" height="20.868"/>
	</g>
	<g>
		<rect x="84.484" y="531.714" style="fill:#F1F2F2;" width="98.967" height="20.87"/>
	</g>
	<g>
		<rect x="84.484" y="565.443" style="fill:#F1F2F2;" width="98.967" height="20.867"/>
	</g>
	<g>
		<path d="M194.271,499.534H82.127c-0.854,0-1.546-0.69-1.546-1.546c0-0.855,0.692-1.546,1.546-1.546h112.145
			c0.855,0,1.545,0.691,1.545,1.546C195.817,498.844,195.126,499.534,194.271,499.534z"/>
	</g>
	<g>
		<path d="M194.271,533.26H82.127c-0.854,0-1.546-0.691-1.546-1.546c0-0.854,0.692-1.546,1.546-1.546h112.145
			c0.855,0,1.545,0.692,1.545,1.546C195.817,532.568,195.126,533.26,194.271,533.26z"/>
	</g>
	<g>
		<path d="M194.271,566.988H82.127c-0.854,0-1.546-0.691-1.546-1.545c0-0.856,0.692-1.547,1.546-1.547h112.145
			c0.855,0,1.545,0.691,1.545,1.547C195.817,566.297,195.126,566.988,194.271,566.988z"/>
	</g>
	<g>
		<path d="M584.58,472.544h-25.637c-0.855,0-1.547-0.691-1.547-1.545c0-0.854,0.691-1.546,1.547-1.546h25.637
			c0.854,0,1.546,0.691,1.546,1.546C586.126,471.853,585.435,472.544,584.58,472.544z"/>
	</g>
	<g>
		<path d="M607.549,490.157h-66.434c-0.854,0-1.545-0.691-1.545-1.545c0-0.855,0.69-1.547,1.545-1.547h66.434
			c0.854,0,1.546,0.691,1.546,1.547C609.095,489.466,608.403,490.157,607.549,490.157z"/>
	</g>
	<g>
		<path d="M738.056,350.995h-31.911c-0.854,0-1.546-0.691-1.546-1.545c0-0.855,0.691-1.546,1.546-1.546h31.911
			c0.854,0,1.545,0.691,1.545,1.546C739.601,350.304,738.91,350.995,738.056,350.995z"/>
	</g>
	<g>
		<path d="M739.641,377.937h-12.852c-0.854,0-1.547-0.691-1.547-1.546c0-0.855,0.692-1.545,1.547-1.545h12.852
			c0.854,0,1.546,0.691,1.546,1.545C741.186,377.246,740.495,377.937,739.641,377.937z"/>
	</g>
	<g>
		<path d="M569.054,592.037h-27.824c-0.854,0-1.545-0.691-1.545-1.546c0-0.854,0.69-1.546,1.545-1.546h27.824
			c0.853,0,1.545,0.692,1.545,1.546C570.599,591.346,569.907,592.037,569.054,592.037z M522.681,592.037h-8.196
			c-0.854,0-1.546-0.691-1.546-1.546c0-0.854,0.691-1.546,1.546-1.546h8.196c0.855,0,1.546,0.692,1.546,1.546
			C524.227,591.346,523.535,592.037,522.681,592.037z"/>
	</g>
	<g>
		<path d="M267.25,592.037h-27.823c-0.855,0-1.546-0.691-1.546-1.546c0-0.854,0.691-1.546,1.546-1.546h27.823
			c0.854,0,1.545,0.692,1.545,1.546C268.796,591.346,268.104,592.037,267.25,592.037z M220.878,592.037h-6.063
			c-0.854,0-1.545-0.691-1.545-1.546c0-0.854,0.691-1.546,1.545-1.546h6.063c0.854,0,1.546,0.692,1.546,1.546
			C222.424,591.346,221.732,592.037,220.878,592.037z"/>
	</g>
	<g>
		<path style="fill:#F38184;" d="M298.244,68.984l-2.437-2.433c-1.104-1.105-2.304-2.042-3.568-2.841
			c-2.294-1.452-4.809-2.412-7.394-2.877c-6.431-1.147-13.293,0.751-18.259,5.718l-3.852,3.846l-3.843-3.846
			c-4.966-4.97-11.831-6.866-18.262-5.718c-2.584,0.465-5.102,1.425-7.396,2.877c-1.262,0.8-2.464,1.736-3.563,2.841l-2.436,2.433
			c-8.07,8.07-8.07,21.152,0,29.222l3.849,3.849l31.651,31.658l31.658-31.655l3.852-3.849
			C306.317,90.139,306.317,77.055,298.244,68.984z"/>
		<path d="M262.734,135.258L262.734,135.258c-0.411,0-0.803-0.163-1.093-0.453L226.14,99.299c-4.195-4.195-6.504-9.771-6.504-15.704
			s2.31-11.508,6.504-15.703l2.437-2.435c1.119-1.123,2.408-2.151,3.828-3.052c2.435-1.542,5.109-2.582,7.95-3.093
			c7.143-1.268,14.514,1.029,19.628,6.147l2.752,2.753l2.758-2.755c5.116-5.116,12.496-7.416,19.624-6.145
			c2.84,0.51,5.513,1.551,7.949,3.093c1.409,0.891,2.699,1.919,3.835,3.054l2.436,2.432c4.196,4.197,6.507,9.774,6.507,15.707
			c0,5.932-2.311,11.51-6.507,15.705l-35.51,35.504C263.537,135.095,263.145,135.258,262.734,135.258z M244.292,62.055
			c-1.135,0-2.276,0.101-3.392,0.3c-2.444,0.439-4.746,1.336-6.841,2.661c-1.226,0.778-2.335,1.66-3.294,2.625l-2.439,2.438
			c-7.454,7.452-7.454,19.58,0,27.034l34.408,34.414l34.417-34.411c3.612-3.61,5.602-8.412,5.602-13.519
			c0-5.107-1.99-9.908-5.602-13.519l-2.436-2.432c-0.973-0.975-2.085-1.859-3.301-2.629c-2.099-1.327-4.399-2.222-6.842-2.661
			c-6.133-1.095-12.488,0.885-16.893,5.289l-3.852,3.848c-0.604,0.602-1.582,0.603-2.186-0.001l-3.843-3.847
			C254.195,64.04,249.399,62.055,244.292,62.055z"/>
	</g>
	<g>
		<polygon style="fill:#FFFFFF;" points="513.65,142.993 482.492,124.999 513.65,107.003 		"/>
		<path d="M513.65,144.539c-0.266,0-0.533-0.069-0.771-0.207l-31.16-17.993c-0.479-0.276-0.772-0.787-0.772-1.339
			c0-0.552,0.294-1.063,0.772-1.339l31.16-17.996c0.477-0.275,1.068-0.275,1.545,0c0.479,0.276,0.773,0.787,0.773,1.338v35.99
			c0,0.553-0.295,1.063-0.773,1.339C514.185,144.47,513.918,144.539,513.65,144.539z M485.583,124.999l26.522,15.316v-30.634
			L485.583,124.999z"/>
	</g>
	<g>
		<polygon style="fill:#FFFFFF;" points="454.762,142.993 423.597,124.999 454.762,107.003 		"/>
		<path d="M454.762,144.539c-0.268,0-0.534-0.069-0.773-0.207l-31.165-17.993c-0.477-0.276-0.772-0.787-0.772-1.339
			c0-0.552,0.295-1.063,0.772-1.339l31.165-17.996c0.479-0.275,1.07-0.275,1.547,0c0.478,0.276,0.773,0.787,0.773,1.338v35.99
			c0,0.553-0.296,1.063-0.773,1.339C455.297,144.47,455.029,144.539,454.762,144.539z M426.688,124.999l26.528,15.316v-30.634
			L426.688,124.999z"/>
	</g>
	<g>
		<path d="M294.808,356.629h-48.379c-0.854,0-1.546-0.692-1.546-1.546c0-0.855,0.691-1.546,1.546-1.546h48.379
			c0.855,0,1.546,0.691,1.546,1.546C296.353,355.937,295.663,356.629,294.808,356.629z"/>
	</g>
	<g>
		<path d="M282.336,382.628h-19.603c-0.854,0-1.546-0.691-1.546-1.545c0-0.855,0.692-1.546,1.546-1.546h19.603
			c0.854,0,1.546,0.691,1.546,1.546C283.882,381.937,283.19,382.628,282.336,382.628z"/>
	</g>
	<g>
		<path d="M524.661,382.628H498.61c-0.854,0-1.546-0.691-1.546-1.545c0-0.855,0.692-1.546,1.546-1.546h26.051
			c0.856,0,1.547,0.691,1.547,1.546C526.208,381.937,525.517,382.628,524.661,382.628z"/>
	</g>
</g>
</svg>
